<?xml version="1.0" standalone="no"?>
<!DOCTYPE svg PUBLIC "-//W3C//DTD SVG 20010904//EN"
 "http://www.w3.org/TR/2001/REC-SVG-20010904/DTD/svg10.dtd">
<svg version="1.0" xmlns="http://www.w3.org/2000/svg"
 width="current" height="current" viewBox="0 0 321.000000 94.000000"
 preserveAspectRatio="xMidYMid meet">

<g transform="translate(0.000000,94.000000) scale(0.100000,-0.100000)"
fill="#000000" stroke="none">
<path d="M1259 933 c0 -5 0 -62 1 -129 l1 -121 -49 5 c-44 4 -51 2 -70 -22
-23 -30 -45 -93 -62 -180 -13 -66 -45 -106 -83 -106 -32 0 -64 28 -73 63 -5
24 -3 27 19 27 36 0 73 34 92 85 29 75 1 135 -65 135 -64 0 -109 -70 -117
-186 -3 -41 -11 -82 -18 -91 -31 -42 -62 27 -50 111 5 28 3 46 -4 50 -6 4 -11
22 -11 41 0 54 -18 82 -64 99 -23 9 -52 16 -64 16 -59 0 -102 -100 -102 -234
0 -105 19 -147 73 -159 47 -11 80 8 98 57 l12 34 21 -31 c27 -40 60 -46 91
-17 l24 23 31 -32 c27 -26 39 -31 81 -31 42 0 54 5 88 35 38 34 40 35 46 15 9
-28 66 -55 99 -46 16 4 33 20 45 44 11 20 20 32 21 26 0 -5 9 -20 20 -32 27
-29 74 -29 103 1 l22 22 20 -30 c14 -19 34 -32 59 -39 37 -8 41 -7 68 23 15
17 28 38 28 46 0 8 5 15 10 15 6 0 10 -6 10 -14 0 -18 38 -46 63 -46 10 0 30
12 44 27 18 17 28 22 31 13 9 -27 43 -50 75 -50 37 0 77 24 77 46 0 18 -24 18
-40 -1 -21 -25 -39 -17 -51 25 -11 35 -9 45 14 97 34 78 48 154 50 271 1 79
-2 104 -16 125 -22 34 -71 37 -88 6 -22 -42 -38 -175 -39 -316 0 -146 -8 -189
-36 -200 -26 -10 -35 17 -32 96 2 52 -1 76 -10 79 -7 2 -12 21 -12 42 0 57 -8
70 -57 91 -59 25 -85 24 -115 -6 -30 -30 -46 -81 -57 -188 -9 -82 -22 -107
-52 -107 -29 0 -32 34 -27 291 l6 239 -39 0 c-22 0 -39 -3 -40 -7z m576 -110
c8 -49 -10 -197 -30 -248 -15 -39 -15 -35 -11 105 4 141 10 180 26 180 5 0 11
-17 15 -37z m-1124 -185 c8 -16 9 -34 1 -72 -6 -28 -14 -70 -17 -93 -7 -56
-24 -91 -48 -99 -29 -9 -40 10 -45 76 -6 78 4 138 28 178 24 39 63 44 81 10z
m869 6 c11 -12 10 -34 -3 -120 -17 -111 -35 -154 -67 -154 -45 0 -51 169 -9
251 21 42 55 52 79 23z m-335 -7 c16 -13 17 -20 7 -89 -22 -146 -67 -219 -93
-151 -20 52 5 195 42 240 14 16 21 16 44 0z m-243 -36 c-4 -48 -29 -91 -54
-91 -19 0 -20 4 -14 43 9 53 32 89 54 85 13 -3 16 -12 14 -37z"/>
<path d="M90 766 l0 -134 -30 -12 c-63 -26 -65 -74 -4 -103 l36 -18 -7 -65
c-8 -77 7 -104 59 -104 l31 0 -4 80 -3 81 103 -3 103 -3 12 -55 c15 -73 22
-88 45 -95 32 -11 39 4 39 83 0 68 3 80 23 97 l22 20 -22 3 c-23 3 -23 5 -23
171 0 116 -4 171 -12 179 -7 7 -28 12 -48 12 l-35 0 3 -166 c2 -91 0 -164 -5
-162 -74 37 -116 52 -155 56 l-48 5 0 96 c0 64 4 101 13 110 10 10 6 17 -16
37 -15 13 -39 24 -53 24 l-24 0 0 -134z m0 -207 c0 -21 -16 -24 -40 -9 -13 9
-12 12 4 25 22 17 36 11 36 -16z m208 0 c23 -12 42 -25 42 -30 0 -5 -38 -9
-85 -9 l-85 0 0 36 0 37 43 -7 c23 -4 61 -16 85 -27z"/>
<path d="M1951 704 c-37 -47 -60 -180 -46 -269 14 -94 96 -128 150 -62 l27 32
-6 -34 c-4 -20 -25 -53 -55 -87 -69 -75 -102 -187 -71 -244 16 -31 101 -51
144 -34 32 12 41 49 46 184 5 132 6 135 28 138 29 4 23 26 -8 30 -22 4 -23 6
-17 90 3 48 9 95 12 105 5 12 2 17 -9 17 -12 0 -16 11 -16 48 0 59 -13 77 -69
97 -62 21 -86 19 -110 -11z m120 -61 c8 -20 8 -40 0 -71 -6 -23 -11 -54 -11
-69 0 -15 -9 -46 -21 -70 -16 -32 -27 -43 -44 -43 -30 0 -35 16 -35 106 0 106
30 174 76 174 17 0 28 -8 35 -27z m-13 -560 c-19 -38 -42 -50 -63 -33 -34 29
-2 171 54 234 15 17 16 12 19 -78 2 -64 -2 -106 -10 -123z"/>
<path d="M2483 708 c-34 -38 -43 -63 -57 -166 -15 -103 -37 -162 -60 -162 -8
0 -17 7 -20 16 -11 28 -6 128 8 182 12 49 12 54 -5 62 -10 6 -34 10 -53 10
-31 0 -36 3 -36 24 0 29 -13 40 -39 31 -18 -5 -20 -18 -23 -133 -2 -70 -2
-129 0 -132 9 -13 31 37 37 83 9 72 14 87 31 87 11 0 14 -18 14 -82 0 -99 13
-152 43 -173 31 -22 55 -19 82 11 l25 27 20 -25 c11 -15 35 -29 56 -32 41 -8
65 8 91 58 l15 30 14 -27 c20 -37 58 -45 94 -18 l29 21 7 -23 c8 -28 22 -37
55 -37 24 0 27 4 33 48 4 26 12 72 18 102 l12 55 7 -79 c5 -61 11 -83 25 -93
35 -26 56 -12 71 47 7 30 21 75 31 100 l17 45 5 -87 c5 -74 9 -91 29 -112 29
-30 71 -34 94 -8 23 25 57 103 57 130 0 38 -21 20 -39 -32 -18 -56 -46 -80
-61 -56 -14 21 -12 167 1 193 10 18 8 24 -16 44 -49 42 -66 30 -105 -77 l-35
-95 -3 75 c-3 77 -10 90 -49 90 -25 0 -36 -17 -63 -94 l-19 -51 0 97 c-1 95
-2 98 -25 104 -14 3 -29 3 -34 0 -5 -3 -10 -47 -11 -98 -2 -142 -28 -210 -67
-177 -13 11 -15 27 -12 87 4 56 2 75 -8 79 -9 3 -14 21 -14 47 0 53 -16 75
-66 92 -55 19 -77 17 -101 -8z m104 -60 c14 -17 22 -67 13 -73 -4 -3 -10 -35
-14 -73 -8 -77 -35 -132 -66 -132 -48 0 -47 202 1 264 22 28 50 34 66 14z"/>
</g>
</svg>
